<?xml version="1.0" encoding="utf-8"?>
<!-- Generator: Adobe Illustrator 24.0.2, SVG Export Plug-In . SVG Version: 6.00 Build 0)  -->
<svg version="1.1" id="_x32_" xmlns="http://www.w3.org/2000/svg" xmlns:xlink="http://www.w3.org/1999/xlink" x="0px" y="0px"
	 viewBox="0 0 512 512" style="enable-background:new 0 0 512 512;" xml:space="preserve">
<style type="text/css">
	.st0{fill:#FFFFFF;}
</style>
<g>
	<path class="st0" d="M108,212.1c-4.6,4.6-4.6,12.1,0,16.8c4.6,4.6,12.1,4.6,16.8,0c4.6-4.6,4.6-12.1,0-16.8
		C120.1,207.5,112.6,207.5,108,212.1z"/>
	<path class="st0" d="M195.1,161c-4.6-4.6-12.1-4.6-16.8,0c-4.6,4.6-4.6,12.1,0,16.8c4.6,4.6,12.1,4.6,16.8,0
		C199.8,173.1,199.8,165.6,195.1,161z"/>
	<path class="st0" d="M262.6,173.3c4.6-4.6,4.6-12.1,0-16.8c-4.6-4.6-12.1-4.6-16.8,0c-4.6,4.6-4.6,12.1,0,16.8
		C250.5,177.9,258,177.9,262.6,173.3z"/>
	<path class="st0" d="M79.3,119.2c-4.6,4.6-4.6,12.1,0,16.8c4.6,4.6,12.1,4.6,16.8,0c4.6-4.6,4.6-12.1,0-16.8
		C91.5,114.6,84,114.6,79.3,119.2z"/>
	<path class="st0" d="M196.4,254.3c-4.6,4.6-4.6,12.1,0,16.8c4.6,4.6,12.1,4.6,16.8,0c4.6-4.6,4.6-12.1,0-16.8
		C208.5,249.6,201,249.6,196.4,254.3z"/>
	<path class="st0" d="M251.6,300.5c-4.6,4.6-4.6,12.1,0,16.8c4.6,4.6,12.1,4.6,16.8,0c4.6-4.6,4.6-12.1,0-16.8
		C263.7,295.9,256.2,295.9,251.6,300.5z"/>
	<path class="st0" d="M330.8,272.9c-4.6,4.6-4.6,12.1,0,16.8c4.6,4.6,12.1,4.6,16.8,0c4.6-4.6,4.6-12.1,0-16.8
		C342.9,268.3,335.4,268.3,330.8,272.9z"/>
	<path class="st0" d="M262.2,225.6c-4.6,4.6-4.6,12.1,0,16.8c4.6,4.6,12.1,4.6,16.8,0c4.6-4.6,4.6-12.1,0-16.8
		C274.4,221,266.9,221,262.2,225.6z"/>
	<path class="st0" d="M174.9,85.5c-4.6-4.6-12.1-4.6-16.8,0c-4.6,4.6-4.6,12.1,0,16.8c4.6,4.6,12.1,4.6,16.8,0
		C179.5,97.6,179.5,90.1,174.9,85.5z"/>
	<path class="st0" d="M507.6,383.2c-3-8.2-7.9-15.3-13.7-21.1c-5-5-10.8-9.1-17.1-12.2l0,0c-6.3-3.1-13.1-5.1-20.2-5.7
		c-6.1-0.5-10.4-0.8-13.8-1c-2.5-0.2-4.6-0.2-6.4-0.3h-1.8c-2,0-3.7,0.1-5.4,0.1l0,0c-2.1,0.1-4.4,0.1-8.1,0.1l-0.2-0.1h-0.1
		c-0.9-0.4-2.9-1.7-4.5-3s-3.1-2.7-4-3.6l-0.7-0.7l0,0l-0.1-0.1l-0.1-0.1L390,314.1l18.5-18.5l0.5-2c2-7.5,3.1-14,3.1-20.1
		c0-5.6-0.9-10.7-2.6-15.3c-3-8.2-8.3-14.6-14.4-20.9c-9.2-9.5-20.7-19.3-33.6-35.1c-12.8-15.8-26.9-37.5-40.6-70.6
		c-19.5-47.2-46.2-80.2-76-101.4C215.2,9.2,182.4,0,151.3,0c-42,0-81.2,16.5-107.4,42.7S1.2,108.1,1.2,150.1
		c0,31.2,9.2,63.9,30.3,93.7s54.2,56.5,101.4,76c50.4,20.9,74.4,42.6,91.2,59.6c8.4,8.5,15,16,22.7,21.9c3.8,2.9,8,5.4,12.6,7.1
		c4.7,1.7,9.8,2.6,15.3,2.6c6,0,12.6-1,20.1-3.1l2-0.5l16.1-16.1l21.3,21.3l0.1,0.1l0,0l1,0.9c1.1,1.1,3.5,3.7,5.1,6l0,0
		c0.7,1,1.3,2.1,1.5,2.5v0.1c0,3.2-0.1,5.4-0.1,7.3c0,1.5-0.1,2.9-0.1,4.5v1.6c0,2,0.1,4.2,0.2,6.9c0.2,3.6,0.5,8.1,1.1,15
		c0.6,7.1,2.6,13.9,5.7,20.2c3.1,6.3,7.2,12,12.2,17.1c7.7,7.7,17.8,13.8,29.6,16.1c3.1,0.6,6.3,0.9,9.5,0.9c3,0,6-0.3,9-0.8
		c6.4-1.1,12.7-3.5,18.7-7c4.4-2.6,8.4-5.7,11.9-9.2c9.8-9.8,15.9-22.7,17.7-36.5c13.8-1.8,26.6-7.9,36.5-17.6l0,0
		c3.5-3.5,6.6-7.5,9.2-11.9c3.5-6,5.9-12.4,7-18.7c0.5-3,0.8-6,0.8-9C510.8,394.9,509.6,388.8,507.6,383.2z M282,381.4
		c-8.9,1.7-12.1,0.3-13.6-0.4c-4.8-2.2-10.6-8.2-17.9-15.7c-18-18.6-45.1-46.6-106.7-72.1c-33.4-13.8-60-32-79.3-54
		c-16.6-19-27.4-40.5-32.1-63.7c-8.1-40.9,4.3-85,31.7-112.5c27.4-27.4,71.6-39.9,112.5-31.7c23.3,4.6,44.7,15.4,63.7,32.1
		c22,19.3,40.2,46,54,79.3c25.5,61.6,53.5,88.7,72.1,106.7c7.5,7.3,13.5,13.1,15.7,17.9c0.7,1.5,2.2,4.7,0.4,13.6L282,381.4z
		 M483.7,405.6c-0.6,3.1-1.7,6.4-3.8,9.9c-1.4,2.4-3.1,4.5-5,6.5c-6.8,6.8-16.8,10.7-27.3,10.4c-0.6-1.7-1.2-3.5-1.9-5.2
		c-3.1-7.4-7.8-14.5-14.2-20.9c-6-6-13.4-11.3-22.2-15.6l-8.4,17.2c7.1,3.5,12.7,7.6,17.1,11.9c4.7,4.7,7.9,9.7,10,14.7
		c3.2,7.6,3.8,15.5,2.4,22.8s-4.8,13.8-9.7,18.7c-1.9,1.9-4.1,3.6-6.5,5c-3.5,2-6.8,3.2-9.9,3.8c-4.7,0.8-9,0.3-13.2-1.2
		s-8.1-4.2-11.5-7.5c-2.9-2.9-5.3-6.3-7.1-9.9c-1.7-3.6-2.8-7.3-3.1-10.7c-0.5-6-0.8-10.1-1-13.1c-0.1-2.3-0.2-3.9-0.2-5.3
		c0-2,0-3.6,0.1-5.9s0.2-5.3,0.2-9.9c0-3.7-1-6.8-2.2-9.6c-1.8-4.1-4.2-7.5-6.5-10.4s-4.5-5.2-5.9-6.6l-1.3-1.3L326.2,367l39.5-39.5
		l26.4,26.4l1.3,1.3c1.9,1.9,5.3,5.1,9.6,8.2c2.2,1.5,4.6,3,7.4,4.2s5.9,2.2,9.6,2.2c4.1,0,6.9-0.1,9.1-0.1c1.7,0,2.9-0.1,4.2-0.1
		c1.8,0,3.6,0,6.7,0.2s7.5,0.5,14.2,1c3.4,0.3,7.1,1.3,10.7,3.1c3.6,1.7,7,4.2,9.9,7.1c4.5,4.5,7.6,10,8.7,15.7
		C484.2,399.6,484.3,402.5,483.7,405.6z"/>
</g>
</svg>
