<?xml version="1.0" encoding="utf-8"?>
<!-- Generator: Adobe Illustrator 24.0.2, SVG Export Plug-In . SVG Version: 6.00 Build 0)  -->
<svg version="1.1" id="_x32_" xmlns="http://www.w3.org/2000/svg" xmlns:xlink="http://www.w3.org/1999/xlink" x="0px" y="0px"
	 viewBox="0 0 512 512" style="enable-background:new 0 0 512 512;" xml:space="preserve">
<style type="text/css">
	.st0{fill:#FFFFFF;}
</style>
<g>
	<path class="st0" d="M507.6,385.4c-3-8.1-7.8-15-13.4-20.7c-4.9-4.9-10.6-9-16.8-12c-6.2-3-12.8-5-19.8-5.6c-6-0.5-10.2-0.8-13.5-1
		c-2.5-0.1-4.5-0.2-6.3-0.3h-1.7c-1.9,0-3.6,0.1-5.3,0.1l0,0c-2,0.1-4.4,0.1-8,0.1l-0.2-0.1l0,0c-0.9-0.4-2.9-1.7-4.4-3
		c-1.6-1.3-3.1-2.7-3.9-3.5l-0.6-0.6l-0.3-0.4l-0.1-0.1l-29.8-29.8l18.1-18.2l0.5-1.9c2-7.3,3-13.8,3-19.7c0-5.5-0.9-10.5-2.6-15.1
		c-3-8-8.1-14.4-14.1-20.6c-9.1-9.4-20.4-18.9-33-34.4s-26.5-36.8-39.9-69.3c-19.2-46.4-45.4-78.8-74.7-99.6
		C211.5,9,179.3,0,148.7,0C107.4,0,68.9,16.2,43.1,41.9c-25.7,25.8-41.9,64.3-42,105.6c0,30.6,9,62.8,29.8,92.1s53.2,55.6,99.6,74.7
		c49.6,20.6,73.1,41.9,89.6,58.5c8.3,8.4,14.8,15.7,22.3,21.5c3.8,2.9,7.8,5.3,12.4,7s9.6,2.6,15.1,2.6c5.9,0,12.4-1,19.7-3l1.9-0.5
		l15.8-15.9l29.8,29.8l0.2,0.1l0.9,0.9c1.1,1.1,3.5,3.7,5,5.9c0.7,1,1.3,2.1,1.5,2.5v0.1c0,3.2-0.1,5.4-0.1,7.2
		c0,1.5-0.1,2.9-0.1,4.4l0,0v1.6c0,1.9,0.1,4.1,0.2,6.8l0,0c0.2,3.5,0.5,8,1.1,14.7c0.6,7,2.6,13.7,5.6,19.8c3,6.2,7.1,11.8,12,16.8
		c7.6,7.6,17.5,13.6,29.1,15.8c3,0.6,6.2,0.9,9.4,0.9c2.9,0,5.9-0.3,8.9-0.8c6.3-1.1,12.5-3.4,18.4-6.9c4.3-2.5,8.2-5.6,11.7-9
		c9.6-9.7,15.6-22.3,17.3-35.8c13.5-1.7,26.2-7.7,35.8-17.3l0,0c3.4-3.4,6.5-7.3,9-11.6l0,0c3.5-5.9,5.8-12.1,6.9-18.4
		c0.5-3,0.8-5.9,0.8-8.8C510.9,397,509.7,390.9,507.6,385.4z M484.2,407.5c-0.5,3.1-1.7,6.3-3.7,9.7c-1.4,2.3-3,4.5-4.9,6.4
		c-6.7,6.7-16.5,10.5-26.9,10.2c-0.5-1.7-1.1-3.4-1.8-5.1c-3-7.3-7.7-14.3-13.9-20.5c-5.9-5.9-13.1-11.1-21.8-15.3l-8.3,16.9
		c7,3.4,12.5,7.4,16.8,11.7c4.6,4.6,7.8,9.5,9.9,14.5c3.1,7.5,3.8,15.3,2.4,22.4s-4.7,13.6-9.6,18.4c-1.9,1.9-4,3.6-6.4,4.9
		c-3.4,2-6.7,3.2-9.7,3.7c-4.6,0.8-8.8,0.3-12.9-1.2s-8-4.1-11.3-7.4c-2.9-2.9-5.3-6.2-7-9.7s-2.7-7.2-3-10.5
		c-0.5-5.9-0.8-9.9-1-12.9c-0.1-2.2-0.2-3.9-0.2-5.2c0-2,0-3.5,0.1-5.8s0.2-5.2,0.2-9.7c0-3.6-1-6.7-2.1-9.4
		c-1.8-4-4.2-7.4-6.4-10.3c-2.3-2.8-4.4-5.1-5.8-6.5l-1.3-1.3l-34.8-34.8l38.8-38.8l34.8,34.8l1.3,1.3c1.8,1.8,5.2,5,9.5,8
		c2.1,1.5,4.5,3,7.2,4.1c2.7,1.2,5.8,2.1,9.4,2.1c4,0,6.8-0.1,9-0.1c1.6,0,2.9-0.1,4.1-0.1c1.8,0,3.5,0,6.6,0.2s7.4,0.5,14,1
		c3.3,0.3,7,1.3,10.5,3s6.9,4.1,9.7,7c4.4,4.4,7.5,9.8,8.5,15.4C484.7,401.5,484.8,404.4,484.2,407.5z"/>
</g>
</svg>
